<svg width="784" height="100" fill="none" xmlns="http://www.w3.org/2000/svg"><path d="M779.65 20.49h-9.28v-9.04H13.28v9.04H4v66.48h9.28v9.04h757.09v-9.04h9.28V20.49Z" stroke="#231F20" stroke-width="7.453"/><path d="M779.65 13.04h-9.28V4H13.28v9.04H4v66.48h9.28v9.04h757.09v-9.04h9.28V13.04Z" stroke="#231F20" stroke-width="7.453"/><path d="M779.65 20.49h-9.28v-9.04H13.28v9.04H4v66.48h9.28v9.04h757.09v-9.04h9.28V20.49Z" fill="#4C702C"/><path d="M779.65 13.04h-9.28V4H13.28v9.04H4v66.48h9.28v9.04h757.09v-9.04h9.28V13.04Z" fill="#F3FFDE"/><path d="M779.65 14.53h-9.28V5.49H13.28v9.04H4v66.48h9.28v9.04h757.09v-9.04h9.28V14.53Z" fill="#94E051"/></svg>