<svg width="84" height="95" fill="none" xmlns="http://www.w3.org/2000/svg"><g clip-path="url(#a)"><path d="M83.22 65.06h-5.95v5.91h5.95v-5.91ZM83.22 59.15h-5.95v5.91h5.95v-5.91ZM83.22 53.23h-5.95v5.92h5.95v-5.92ZM77.28 70.97h-5.95v5.92h5.95v-5.92Z" fill="#202126"/><path d="M77.28 47.32h-5.95v5.91h5.95v-5.91ZM71.33 76.88h-5.95v5.91h5.95v-5.91ZM71.33 41.4h-5.95v5.92h5.95V41.4ZM65.39 82.8h-5.95v5.92h5.95V82.8Z" fill="#202126"/><path d="M65.39 35.49h-5.95v5.92h5.95v-5.92ZM59.44 88.71h-5.95v5.91h5.95v-5.91ZM59.44 29.57h-5.95v5.91h5.95v-5.91ZM59.44 11.83h-5.95v5.91h5.95v-5.91Z" fill="#202126"/><path d="M53.49 88.71h-5.95v5.91h5.95v-5.91Z" fill="#202126"/><path d="M53.49 29.57h-5.95v5.91h5.95v-5.91Z" fill="#AD5B57"/><path d="M53.49 23.66h-5.95v5.91h5.95v-5.91ZM53.49 17.74h-5.95v5.92h5.95v-5.92Z" fill="#202126"/><path d="M53.49 11.83h-5.95v5.91h5.95v-5.91Z" fill="#F2BF33"/><path d="M53.49 5.92h-5.95v5.91h5.95V5.92ZM47.54 88.71h-5.93v5.91h5.93v-5.91Z" fill="#202126"/><path d="M47.54 29.57h-5.93v5.91h5.93v-5.91ZM47.54 23.66h-5.93v5.91h5.93v-5.91Z" fill="#AD5B57"/><path d="M47.54 17.74h-5.93v5.92h5.93v-5.92Z" fill="#7D423F"/><path d="M47.54 11.83h-5.93v5.91h5.93v-5.91ZM47.54 5.92h-5.93v5.91h5.93V5.92Z" fill="#F2BF33"/><path d="M47.54 0h-5.93v5.92h5.93V0ZM41.62 88.71h-5.95v5.91h5.95v-5.91Z" fill="#202126"/><path d="M41.62 29.57h-5.95v5.91h5.95v-5.91ZM41.62 23.66h-5.95v5.91h5.95v-5.91Z" fill="#AD5B57"/><path d="M41.62 17.74h-5.95v5.92h5.95v-5.92Z" fill="#7D423F"/><path d="M41.62 11.83h-5.95v5.91h5.95v-5.91ZM41.62 5.92h-5.95v5.91h5.95V5.92Z" fill="#F2BF33"/><path d="M41.62 0h-5.95v5.92h5.95V0ZM35.67 88.71h-5.95v5.91h5.95v-5.91Z" fill="#202126"/><path d="M35.67 41.4h-5.95v5.92h5.95V41.4Z" fill="#FCE8E9"/><path d="M35.67 29.57h-5.95v5.91h5.95v-5.91Z" fill="#AD5B57"/><path d="M35.67 23.66h-5.95v5.91h5.95v-5.91ZM35.67 17.74h-5.95v5.92h5.95v-5.92Z" fill="#202126"/><path d="M35.67 11.83h-5.95v5.91h5.95v-5.91Z" fill="#F2BF33"/><path d="M35.67 5.92h-5.95v5.91h5.95V5.92ZM29.73 88.71h-5.95v5.91h5.95v-5.91Z" fill="#202126"/><path d="M29.73 70.97h-5.95v5.92h5.95v-5.92ZM29.73 47.32h-5.95v5.91h5.95v-5.91Z" fill="#FCE8E9"/><path d="M29.73 29.57h-5.95v5.91h5.95v-5.91ZM29.73 11.83h-5.95v5.91h5.95v-5.91ZM23.78 82.8h-5.95v5.92h5.95V82.8Z" fill="#202126"/><path d="M23.78 65.06h-5.95v5.91h5.95v-5.91ZM23.78 59.15h-5.95v5.91h5.95v-5.91ZM23.78 53.23h-5.95v5.92h5.95v-5.92Z" fill="#FCE8E9"/><path d="M23.78 35.49h-5.95v5.92h5.95v-5.92ZM17.83 76.88h-5.95v5.91h5.95v-5.91ZM17.83 41.4h-5.95v5.92h5.95V41.4Z" fill="#202126"/><path d="M11.89 70.97H5.95v5.92h5.94v-5.92Z" fill="#202126"/><path d="M71.33 59.15H23.78v11.82h5.94v5.91h-5.94v-5.91h-5.95V59.15H5.95v11.82h5.93v5.91h5.95v5.92h5.95v5.91H59.44V82.8h5.94v-5.92h5.95v-5.91h5.94V59.15h-5.94Z" fill="#CF1322"/><path d="M71.33 53.23v-5.91h-5.95V41.4h-5.94v-5.91H23.78v5.91h-5.95v5.92h-5.95v5.91H5.95v5.92H17.83v-5.92h5.95v-5.91h5.94V41.4h5.95v5.92h-5.95v5.91h-5.94v5.92h53.49v-5.92h-5.94Z" fill="#FCA4AB"/><path d="M11.89 47.32H5.95v5.91h5.94v-5.91ZM5.95 65.06H0v5.91h5.95v-5.91ZM5.95 59.15H0v5.91h5.95v-5.91ZM5.95 53.23H0v5.92h5.95v-5.92Z" fill="#202126"/></g><defs><clipPath id="a"><path fill="#fff" d="M0 0h83.22v94.63H0z"/></clipPath></defs></svg>