<svg width="348" height="246" fill="none" xmlns="http://www.w3.org/2000/svg"><g clip-path="url(#a)"><path d="M302.22 0v11.14h11.2V0h-11.2ZM279.85 11.14v22.28h22.37V11.14h-22.37ZM268.65 0v11.14h11.2V0h-11.2ZM246.26 33.42V55.7h22.39V33.42h-22.39Z" fill="#fff"/><path d="M302.25 178.26h-89.56v44.56h100.76v-44.56h-11.2Zm-33.58 33.43h-22.39V189.4h33.59v22.28h-11.2v.01Z" fill="#AD5B57"/><path d="M324.64 233.97v-11.15H201.51v22.29h134.33v-11.14h-11.2ZM246.28 122.58v-22.29h-11.19v33.42h11.19v-11.13Z" fill="#451D1B"/><path d="M201.51 178.26v44.56h11.18v-44.56h-11.18Z" fill="#8A4040"/><path d="M313.45 156v-11.14h-11.2v-11.15h-11.19v-11.13h-11.19v-11.14h-11.2v-11.15h-22.39v33.42h-33.59v-33.42h-11.18V89.16h-67.18v11.13h11.2v11.15h11.2v11.14h11.19v11.13h11.19v11.15h11.2V156h11.2v11.14h123.13V156h-11.19Z" fill="#BA3F3F"/><path d="M235.09 78.02H123.13v11.14h123.15V78.02h-11.19Z" fill="#F76565"/><path d="M268.67 189.4h-22.39v22.29h33.59V189.4h-11.2ZM145.53 167.14v33.41h22.39v-33.41h-22.39ZM100.75 122.58v11.13h22.38v-11.13h-22.38ZM55.97 167.14v33.41h22.39v-33.41H55.97Z" fill="#56CFF0"/><path d="M179.11 167.14V156h-11.19v-11.14h-11.2v-11.14h-11.2v-11.14h-11.2v-11.14h-11.2V100.3h-22.38v11.14h-11.2v11.14h-11.2v11.14H67.17v11.14h-11.2V156h-11.2v11.14H33.59v55.69h55.96V156h44.77v66.83h55.98v-55.69h-11.19Zm-67.16-44.56h11.18v11.14h-22.38v-11.14h11.2Zm-33.59 55.68v22.28H55.97v-33.41h22.39v11.13Zm67.17 11.14v-22.27h22.4v33.41h-22.4V189.4Z" fill="#C96965"/><path d="M223.89 89.16h-22.38v11.13h33.58V89.16h-11.2ZM190.31 178.26h11.2v-11.12h-11.2v11.12ZM179.11 156v11.14h11.2V156h-11.2ZM167.92 144.86V156h11.19v-11.14h-11.19ZM156.73 133.71v11.15h11.19v-11.15h-11.19ZM145.53 122.58v11.13h11.2v-11.13h-11.2ZM134.33 111.44v11.14h11.2v-11.14h-11.2ZM123.13 100.29v11.15h11.2v-11.15h-11.2ZM111.95 89.16h-11.2v11.13h22.38V89.16h-11.18ZM89.56 111.44h11.19v-11.15H89.56v11.15ZM78.36 122.58h11.2v-11.14h-11.2v11.14ZM67.17 133.71h11.19v-11.13H67.17v11.13ZM55.97 144.86h11.2v-11.15h-11.2v11.15ZM44.77 156h11.2v-11.14h-11.2V156ZM33.59 167.14h11.18V156H33.59v11.14ZM22.4 178.26h11.19v-11.12H22.4v11.12Z" fill="#9C0E0E"/><path d="M313.45 167.14H201.51v11.12h123.13v-11.12h-11.19ZM257.48 100.29V89.16h-22.39v11.13h22.39ZM190.31 156v11.14h11.2V156h-11.2ZM179.11 144.86V156h11.2v-11.14h-11.2ZM167.92 133.71v11.15h11.19v-11.15h-11.19ZM156.73 122.58v11.13h11.19v-11.13h-11.19ZM145.53 111.44v11.14h11.2v-11.14h-11.2ZM134.33 100.29v11.15h11.2v-11.15h-11.2ZM123.13 89.16v11.13h11.2V89.16h-11.2ZM111.95 156H89.56v66.82h44.77V156h-22.38ZM111.95 78.02h-11.2v11.14h22.38V78.02h-11.18ZM89.56 100.29h11.19V89.16H89.56v11.13ZM78.36 111.44h11.2v-11.15h-11.2v11.15ZM67.17 122.58h11.19v-11.14H67.17v11.14ZM55.97 133.71h11.2v-11.13h-11.2v11.13ZM44.77 144.86h11.2v-11.15h-11.2v11.15ZM33.59 156h11.18v-11.14H33.59V156ZM22.4 167.14h11.19V156H22.4v11.14Z" fill="#780B0B"/><path d="M223.89 100.29h-11.2v33.42h22.4v-33.42h-11.2ZM167.92 222.82H22.4v11.15H11.2v11.14h179.11v-22.29h-22.39Z" fill="#5E2725"/><path d="M335.84 233.97v11.14h11.2v-11.14h-11.2ZM324.64 222.82v11.15h11.2v-11.15h-11.2ZM335.84 167.14V156h-11.2v22.26h11.2v-11.12ZM324.64 200.55v-22.29h-11.19v44.56h11.19v-22.27ZM313.45 144.86V156h11.19v-11.14h-11.19ZM302.25 133.71v11.15h11.2v-11.15h-11.2ZM291.06 122.58v11.13h11.19v-11.13h-11.19ZM279.87 111.44v11.14h11.19v-11.14h-11.19ZM268.67 100.29v11.15h11.2v-11.15h-11.2ZM257.48 89.16v11.13h11.19V89.16h-11.19ZM246.28 78.02v11.14h11.2V78.02h-11.2ZM235.09 66.87H100.75v11.15h145.53V66.87h-11.19ZM190.31 189.4v55.71h11.2v-66.85h-11.2v11.14ZM89.56 89.16h11.19V78.02H89.56v11.14ZM78.36 100.29h11.2V89.16h-11.2v11.13ZM67.17 111.44h11.19v-11.15H67.17v11.15ZM55.97 122.58h11.2v-11.14h-11.2v11.14ZM44.77 133.71h11.2v-11.13h-11.2v11.13ZM33.59 144.86h11.18v-11.15H33.59v11.15ZM22.4 200.55v22.27h11.19v-44.56H22.4v22.29ZM22.4 156h11.19v-11.14H22.4V156ZM11.2 233.97h11.2v-11.15H11.2v11.15ZM11.2 167.14v11.12h11.2V156H11.2v11.14ZM0 245.11h11.2v-11.14H0v11.14Z" fill="#202126"/></g><defs><clipPath id="a"><path fill="#fff" d="M0 0h347.04v245.11H0z"/></clipPath></defs></svg>