<svg width="161" height="177" fill="none" xmlns="http://www.w3.org/2000/svg"><g clip-path="url(#a)"><path d="M80.48 128.13h-16.1v48.06h32.2v-48.06h-16.1Z" fill="#C96965"/><path d="M80.48 112.14h-16.1v15.99h32.2v-15.99h-16.1Z" fill="#873835"/><path d="M144.88 96.12v32.01h16.1V96.12h-16.1ZM112.68 112.14v15.99h16.1V96.12h-16.1v16.02ZM128.78 64.08h-16.1V80.1h16.1V64.08ZM112.68 48.06h-16.1v16.02h16.1V48.06ZM64.38 80.1v32.04h32.2V80.1h-32.2ZM80.48 32.04h-16.1v16.02h16.1V32.04ZM64.37 48.06H48.3v16.02h16.07V48.06ZM32.2 112.14v15.99h16.1V96.12H32.2v16.02Z" fill="#4C702C"/><path d="M144.88 64.08V48.06h-16.1V32.04h-16.1V16.02h-16.1V0h-16.1v16.02h-16.1v16.02h16.1v16.02h-16.1v16.02H48.3V48.06H32.2v16.02H16.1v32.04h48.27V80.1h32.2v16.02h64.39V64.08h-16.08Zm-32.2 16.02V64.08h-16.1V48.06h16.1v16.02h16.1V80.1h-16.1Z" fill="#79B346"/><path d="M64.37 32.04H48.3v16.02h16.07V32.04Z" fill="#79B346"/><path d="M80.48 0h-16.1v16.02h16.1V0ZM64.37 16.02H48.3v16.02h16.07V16.02ZM48.3 32.04H32.2v16.02h16.1V32.04ZM32.2 48.06H16.1v16.02h16.1V48.06ZM0 80.1v48.03h16.1V64.08H0V80.1Z" fill="#9BE65A"/><path d="M167.36 156.55h-11.19v11.14h11.19v-11.14Z" fill="#B2B5B0"/><path d="M167.36 145.42h-11.19v11.13h11.19v-11.13Z" fill="#787A77"/><path d="M167.36 134.26h-11.19v11.16h11.19v-11.16Z" fill="#E7EBE4"/><path d="M156.17 156.55h-11.2v11.14h11.2v-11.14ZM156.17 145.42h-11.2v11.13h11.2v-11.13Z" fill="#B2B5B0"/><path d="M156.17 134.26h-11.2v11.16h11.2v-11.16Z" fill="#787A77"/><path d="M156.17 123.14h-11.2v11.13h11.2v-11.13Z" fill="#E7EBE4"/><path d="M144.97 156.55h-11.2v11.14h11.2v-11.14Z" fill="#787A77"/><path d="M144.97 145.42h-11.2v11.13h11.2v-11.13ZM144.97 134.26h-11.2v11.16h11.2v-11.16Z" fill="#B2B5B0"/><path d="M144.97 123.14h-11.2v11.13h11.2v-11.13ZM144.97 112h-11.2v11.14h11.2V112Z" fill="#E7EBE4"/><path d="M133.77 156.55h-11.18v11.14h11.18v-11.14ZM133.77 145.42h-11.18v11.13h11.18v-11.13Z" fill="#787A77"/><path d="M133.77 134.26h-11.18v11.16h11.18v-11.16Z" fill="#B2B5B0"/><path d="M133.77 123.14h-11.18v11.13h11.18v-11.13ZM133.77 112h-11.18v11.14h11.18V112Z" fill="#E7EBE4"/><path d="M122.58 156.55h-11.19v11.14h11.19v-11.14ZM122.58 145.42h-11.19v11.13h11.19v-11.13Z" fill="#787A77"/><path d="M122.58 134.26h-11.19v11.16h11.19v-11.16Z" fill="#B2B5B0"/><path d="M122.58 123.14h-11.19v11.13h11.19v-11.13Z" fill="#E7EBE4"/><path d="M111.39 156.55h-11.2v11.14h11.2v-11.14ZM111.39 145.42h-11.2v11.13h11.2v-11.13Z" fill="#B2B5B0"/><path d="M111.39 134.26h-11.2v11.16h11.2v-11.16Z" fill="#E7EBE4"/><path d="M100.19 156.55H89v11.14h11.19v-11.14Z" fill="#B2B5B0"/></g><defs><clipPath id="a"><path fill="#fff" d="M0 0h160.98v176.19H0z"/></clipPath></defs></svg>