<svg width="104" height="109" fill="none" xmlns="http://www.w3.org/2000/svg"><g clip-path="url(#a)"><path d="m63.774 12.396-.483 5.95 5.96.484.483-5.95-5.96-.484ZM69.246 18.833l-.49 5.95 5.95.488.49-5.95-5.95-.488ZM74.716 25.273l-.488 5.95 5.95.489.488-5.95-5.95-.489ZM80.184 31.719l-.489 5.95 5.95.488.489-5.95-5.95-.488ZM85.652 38.156l-.489 5.95 5.95.489.489-5.95-5.95-.489Z" fill="#FF8000"/><path d="m70.23 6.92 5.95.49-.49 5.95 5.95.49-.49 5.95 5.96.49-.49 5.95 5.96.49-.48 5.95 5.95.49-.49 5.95-.48 5.96-5.96-.49.49-5.95-5.95-.49.48-5.95-5.95-.49.48-5.95-5.95-.49.48-5.95-5.95-.49.49-5.95-5.96-.49.49-5.95 5.96.48Z" fill="#FB0"/><path d="m64.76.48 5.95.49 5.95.49-.48 5.95-5.95-.49-5.96-.48-.49 5.95-.48 5.96-5.96-.49.49-5.95.48-5.96L58.8 0l5.96.48Z" fill="#202126"/><path d="m63.3 18.346-.483 5.95 5.95.484.484-5.95-5.95-.484Z" fill="#202126"/><path d="m68.765 24.778-.487 5.96 5.95.486.487-5.96-5.95-.486ZM74.24 31.228l-.487 5.95 5.95.486.486-5.95-5.95-.486ZM76.17 7.414l-.486 5.95 5.95.486.487-5.95-5.95-.486ZM79.706 37.66l-.485 5.96 5.95.484.485-5.96-5.95-.484ZM81.638 13.848l-.486 5.95 5.95.486.487-5.95-5.95-.486ZM87.112 20.288l-.486 5.95 5.95.486.487-5.95-5.95-.486Z" fill="#202126"/><path d="m97.08 45.08.48-5.96.49-5.95 5.95.48-.48 5.96-.49 5.95-.49 5.95-5.95-.48-5.95-.49-5.96-.48.49-5.96 5.95.49 5.96.49ZM92.576 26.73l-.489 5.95 5.95.489.489-5.95-5.95-.489Z" fill="#202126"/><path d="m16.841 93.012-4.55 3.864 3.864 4.551 4.55-3.864-3.864-4.551ZM25.258 93.703l-4.55 3.865 3.866 4.55 4.55-3.865-3.866-4.55ZM33.674 94.385l-4.55 3.865 3.866 4.55 4.55-3.866-3.866-4.55ZM42.1 95.067l-4.55 3.866 3.865 4.549 4.55-3.865-3.866-4.55ZM50.52 95.762l-4.55 3.866 3.866 4.55 4.55-3.866-3.866-4.55Z" fill="#FF8000"/><path d="m12.97 88.45 4.56-3.86 3.86 4.55 4.56-3.87 3.86 4.56 4.56-3.87 3.86 4.56 4.56-3.87 3.86 4.55 4.56-3.87 3.86 4.56 3.87 4.55-4.55 3.87-3.87-4.56-4.55 3.87-3.87-4.55-4.55 3.87-3.87-4.56-4.55 3.87-3.87-4.56-4.55 3.87L16.84 93l-4.55 3.87-3.87-4.55 4.55-3.87Z" fill="#FB0"/><path d="m4.55 87.77 4.56-3.87 4.55-3.87 3.87 4.56-4.56 3.86-4.55 3.87 3.87 4.55 3.86 4.56-4.55 3.86-3.87-4.55-3.86-4.55L0 91.64l4.55-3.87ZM20.709 97.56l-4.55 3.865 3.864 4.55 4.55-3.864-3.864-4.55ZM29.125 98.248l-4.551 3.863 3.863 4.551 4.551-3.863-3.863-4.551ZM37.542 98.934l-4.55 3.866 3.866 4.549 4.55-3.865-3.866-4.55Z" fill="#202126"/><path d="m22.07 80.72-4.55 3.865 3.866 4.55 4.549-3.867-3.866-4.549ZM45.963 99.618l-4.551 3.864 3.863 4.551 4.551-3.864-3.863-4.551ZM30.49 81.41l-4.548 3.865 3.872 4.556 4.549-3.865-3.872-4.557ZM38.919 82.1l-4.55 3.866 3.867 4.549 4.549-3.867-3.866-4.549ZM58.94 96.44l-3.87-4.55-3.86-4.56 4.55-3.86 3.87 4.55 3.86 4.55 3.87 4.56-4.55 3.87-4.56 3.86-4.55 3.87-3.87-4.56 4.56-3.86 4.55-3.87Z" fill="#202126"/><path d="m47.352 82.778-4.559 3.87 3.863 4.55 4.56-3.869-3.864-4.551Z" fill="#202126"/><path d="m35.031 43.385-5.865 1.111 1.111 5.866 5.866-1.112-1.112-5.865ZM42 48.146l-5.867 1.11 1.111 5.866 5.865-1.11L42 48.146ZM48.981 52.906l-5.865 1.111 1.112 5.866 5.865-1.112-1.112-5.865ZM55.972 57.664l-5.875 1.114 1.112 5.865 5.875-1.114-1.112-5.865ZM62.953 62.43l-5.877 1.107 1.106 5.867 5.876-1.108-1.106-5.866Z" fill="#FF8000"/><path d="m33.92 37.52 5.87-1.11 1.11 5.87 5.87-1.11 1.11 5.87 5.87-1.11 1.11 5.87 5.87-1.11 1.11 5.87 5.87-1.11 1.11 5.87 1.11 5.87-5.87 1.11-1.11-5.87-5.87 1.11-1.11-5.87-5.87 1.11-1.11-5.87-5.87 1.11-1.11-5.87-5.87 1.11-1.11-5.87-5.87 1.11-1.1-5.87 5.86-1.11Z" fill="#FB0"/><path d="m26.95 32.76 5.86-1.11 5.87-1.11 1.11 5.87-5.87 1.11-5.86 1.11 1.1 5.87 1.11 5.87-5.87 1.11-1.11-5.87-1.1-5.87-1.12-5.88 5.88-1.1ZM36.141 49.258l-5.866 1.109 1.109 5.866 5.866-1.109-1.109-5.866ZM43.12 54.016l-5.875 1.11 1.107 5.865 5.876-1.109-1.107-5.866ZM50.092 58.779l-5.866 1.109 1.108 5.866 5.866-1.109-1.108-5.866ZM45.66 35.296l-5.866 1.111 1.11 5.866 5.866-1.111-1.11-5.866ZM57.076 63.542l-5.867 1.107 1.107 5.867 5.866-1.107-1.106-5.867ZM52.645 40.056l-5.877 1.107 1.105 5.866 5.877-1.107-1.105-5.866ZM59.61 44.816l-5.867 1.111 1.113 5.876 5.866-1.111-1.113-5.876Z" fill="#202126"/><path d="m69.93 67.19-1.11-5.87-1.11-5.87 5.86-1.1 1.12 5.86 1.1 5.87 1.11 5.87-5.87 1.11-5.86 1.11-5.87 1.11-1.12-5.87 5.88-1.11 5.87-1.11ZM66.591 49.59l-5.866 1.108 1.108 5.866 5.867-1.108-1.109-5.866Z" fill="#202126"/></g><defs><clipPath id="a"><path fill="#fff" d="M0 0h104v108.73H0z"/></clipPath></defs></svg>