<svg width="74" height="74" fill="none" xmlns="http://www.w3.org/2000/svg"><g clip-path="url(#a)"><path d="M32.55 32.55h16.27v-8.14H24.41v8.14h8.14Z" fill="#C90A4D"/><path d="M16.27 40.68v8.14h8.14v8.14h8.14v8.13h8.13v-8.13h8.14v-8.14h8.14v-8.14h8.13v-8.13H8.14v8.13h8.13ZM40.68 24.41h8.14V8.14H24.41v16.27h16.27Z" fill="#FF6183"/><path d="M8.14 40.68v-8.13H0v8.13h8.14ZM8.14 40.68v8.14h8.13v-8.14H8.14ZM24.41 32.55V8.14h-8.14v16.27H8.14v8.14h16.27ZM16.27 48.82v8.14h8.14v-8.14h-8.14ZM24.41 56.96v8.13h8.14v-8.13h-8.14ZM40.68 8.14h8.14V0H24.41v8.14h16.27ZM32.55 73.23h8.13v-8.14h-8.13v8.14ZM40.68 65.09h8.14v-8.13h-8.14v8.13ZM48.82 24.41v8.14h16.27v-8.14h-8.13V8.14h-8.14v16.27ZM48.82 56.96h8.14v-8.14h-8.14v8.14ZM56.96 48.82h8.13v-8.14h-8.13v8.14ZM73.23 40.68v-8.13h-8.14v8.13h8.14Z" fill="#202126"/></g><defs><clipPath id="a"><path fill="#fff" d="M0 0h73.23v73.23H0z"/></clipPath></defs></svg>