<svg width="74" height="74" fill="none" xmlns="http://www.w3.org/2000/svg"><g clip-path="url(#a)"><path d="M40.68 32.55v16.27h8.14V24.41h-8.14v8.14Z" fill="#1F79B3"/><path d="M32.55 16.27h-8.14v8.14h-8.14v8.14H8.14v8.13h8.13v8.14h8.14v8.14h8.14v8.13h8.13V8.14h-8.13v8.13ZM48.82 40.68v8.14h16.27V24.41H48.82v16.27Z" fill="#47B8FF"/><path d="M32.55 8.14h8.13V0h-8.13v8.14ZM32.55 8.14h-8.14v8.13h8.14V8.14ZM40.68 24.41h24.41v-8.14H48.82V8.14h-8.14v16.27Z" fill="#202126"/><path d="M24.41 16.27h-8.14v8.14h8.14v-8.14Z" fill="#202126"/><path d="M16.27 24.41H8.14v8.14h8.13v-8.14ZM65.09 40.68v8.14h8.14V24.41h-8.14v16.27ZM0 32.55v8.13h8.14v-8.13H0ZM8.14 40.68v8.14h8.13v-8.14H8.14ZM48.82 48.82h-8.14v16.27h8.14v-8.13h16.27v-8.14H48.82ZM16.27 48.82v8.14h8.14v-8.14h-8.14ZM24.41 56.96v8.13h8.14v-8.13h-8.14ZM32.55 73.23h8.13v-8.14h-8.13v8.14Z" fill="#202126"/></g><defs><clipPath id="a"><path fill="#fff" d="M0 0h73.23v73.23H0z"/></clipPath></defs></svg>