<svg width="112" height="123" fill="none" xmlns="http://www.w3.org/2000/svg"><g clip-path="url(#a)"><path d="M55.97 89.11h-11.2v33.42h22.4V89.11h-11.2Z" fill="#C96965"/><path d="M55.97 77.98h-11.2v11.13h22.4V77.98h-11.2Z" fill="#873835"/><path d="M100.76 66.84V89.11h11.19V66.84h-11.19ZM78.36 77.98v11.13h11.2V66.84h-11.2v11.14ZM89.56 44.56h-11.2V55.7h11.2V44.56ZM78.36 33.42H67.17v11.14h11.19V33.42ZM44.77 55.7v22.28h22.4V55.7h-22.4ZM55.97 22.28h-11.2v11.14h11.2V22.28ZM44.77 33.42H33.59v11.14h11.18V33.42ZM22.39 77.98v11.13h11.2V66.84h-11.2v11.14Z" fill="#4C702C"/><path d="M100.76 44.56V33.42h-11.2V22.28h-11.2V11.14H67.17V0h-11.2v11.14h-11.2v11.14h11.2v11.14h-11.2v11.14H33.59V33.42h-11.2v11.14H11.2v22.28h33.58V55.7h22.4v11.14h44.78V44.56h-11.2ZM78.36 55.7V44.56H67.17V33.42h11.19v11.14h11.2V55.7h-11.2Z" fill="#79B346"/><path d="M44.77 22.28H33.59v11.14h11.18V22.28Z" fill="#79B346"/><path d="M55.97 0h-11.2v11.14h11.2V0ZM44.77 11.14H33.59v11.14h11.18V11.14ZM33.59 22.28h-11.2v11.14h11.2V22.28ZM22.4 33.42H11.2v11.14h11.2V33.42ZM0 55.7V89.11h11.2V44.56H0V55.7Z" fill="#9BE65A"/></g><defs><clipPath id="a"><path fill="#fff" d="M0 0h111.95v122.53H0z"/></clipPath></defs></svg>