<svg width="104" height="109" fill="none" xmlns="http://www.w3.org/2000/svg"><g clip-path="url(#a)"><path d="m40.218 12.387-5.96.483.482 5.95 5.96-.483-.482-5.95ZM34.743 18.826l-5.95.489.489 5.95 5.95-.49-.49-5.949ZM29.277 25.278l-5.95.488.487 5.95 5.95-.487-.487-5.95ZM23.805 31.704l-5.95.489.489 5.95 5.95-.49-.49-5.949ZM18.335 38.149l-5.95.488.488 5.95 5.95-.488-.488-5.95Z" fill="#FF8000"/><path d="m33.77 6.92-5.95.49.49 5.95-5.96.49.49 5.95-5.95.49.49 5.95-5.96.49.48 5.95-5.95.49.48 5.95.49 5.96 5.95-.49-.48-5.95 5.95-.49-.48-5.95 5.95-.49-.48-5.95 5.95-.49-.49-5.95 5.96-.49-.49-5.95 5.96-.49-.49-5.95-5.96.48Z" fill="#FB0"/><path d="m39.24.48-5.95.49-5.95.49.48 5.95 5.95-.49 5.96-.48.49 5.95.48 5.96 5.96-.49-.49-5.95-.48-5.96L45.2 0l-5.96.48Z" fill="#202126"/><path d="m40.699 18.346-5.95.484.483 5.95 5.95-.483-.483-5.95ZM35.227 24.79l-5.95.485.486 5.96 5.95-.485-.486-5.96ZM29.76 31.227l-5.951.486.486 5.95 5.95-.486-.486-5.95ZM27.817 7.408l-5.95.486.486 5.95 5.95-.485-.486-5.95ZM24.3 37.666l-5.95.484.484 5.96 5.95-.483-.485-5.96ZM22.357 13.848l-5.95.486.485 5.95 5.95-.486-.485-5.95ZM16.888 20.287l-5.95.486.486 5.95 5.95-.486-.486-5.95ZM6.92 45.08l-.49-5.96-.48-5.95-5.95.48.48 5.96.49 5.95.49 5.95 5.95-.48 5.95-.49 5.95-.48-.48-5.96-5.96.49-5.95.49ZM11.414 26.725l-5.95.489.49 5.95 5.949-.49-.49-5.95Z" fill="#202126"/><path d="m87.15 93.014-3.865 4.55 4.55 3.865 3.865-4.55-4.55-3.865ZM78.739 93.707l-3.866 4.549 4.549 3.866 3.866-4.549-4.55-3.866ZM70.313 94.39l-3.866 4.548 4.549 3.867 3.866-4.55-4.549-3.866Z" fill="#FF8000"/><path d="m61.9 95.072-3.865 4.55 4.549 3.865 3.866-4.549-4.55-3.866ZM53.477 95.752l-3.865 4.549 4.557 3.872 3.865-4.55-4.556-3.871Z" fill="#FF8000"/><path d="m91.02 88.45-4.55-3.86-3.87 4.55-4.55-3.87-3.87 4.56-4.55-3.87-3.87 4.56-4.55-3.87-3.87 4.55-4.55-3.87-3.87 4.56-3.86 4.55 4.55 3.87 3.87-4.56 4.55 3.87 3.87-4.55 4.55 3.87 3.87-4.56 4.55 3.87 3.87-4.56 4.55 3.87L87.16 93l4.55 3.87 3.87-4.55-4.56-3.87Z" fill="#FB0"/><path d="m99.44 87.77-4.55-3.87-4.55-3.87-3.87 4.56 4.55 3.86 4.56 3.87-3.87 4.55-3.87 4.56 4.56 3.86 3.87-4.55 3.86-4.55 3.87-4.55-4.56-3.87ZM83.286 97.564l-3.864 4.551 4.55 3.864 3.865-4.551-4.551-3.864ZM74.869 98.245l-3.864 4.551 4.55 3.864 3.865-4.551-4.551-3.864ZM66.457 98.935l-3.865 4.55 4.55 3.865 3.865-4.549-4.55-3.866Z" fill="#202126"/><path d="m81.914 80.727-3.865 4.55 4.557 3.871 3.865-4.55-4.557-3.871ZM58.026 99.618l-3.864 4.551 4.55 3.864 3.865-4.551-4.551-3.864ZM73.488 81.41l-3.866 4.55 4.55 3.866 3.865-4.55-4.55-3.865ZM65.07 82.1l-3.865 4.549 4.549 3.865 3.865-4.549L65.07 82.1Z" fill="#202126"/><path d="m45.06 96.44 3.86-4.55 3.87-4.56-4.55-3.86-3.87 4.55-3.87 4.55-3.86 4.56 4.55 3.87 4.56 3.86 4.55 3.87 3.87-4.56-4.56-3.86-4.55-3.87Z" fill="#202126"/><path d="m56.649 82.78-3.863 4.552 4.56 3.869 3.863-4.552-4.56-3.87Z" fill="#202126"/><path d="m68.967 43.393-1.111 5.866 5.865 1.111 1.112-5.865-5.866-1.112ZM61.993 48.154l-1.11 5.866 5.865 1.11 1.11-5.866-5.865-1.11ZM55.008 52.916l-1.111 5.865 5.865 1.112 1.112-5.866-5.866-1.111ZM48.03 57.677l-1.113 5.865 5.876 1.115 1.112-5.866-5.875-1.114Z" fill="#FF8000"/><path d="M41.046 62.433 39.941 68.3l5.877 1.107 1.105-5.867-5.877-1.107Z" fill="#FF8000"/><path d="m70.07 37.52-5.87-1.11-1.1 5.87-5.87-1.11-1.11 5.87-5.87-1.11-1.12 5.87-5.86-1.11-1.11 5.87-5.87-1.11-1.11 5.87-1.11 5.87 5.87 1.11 1.11-5.87 5.87 1.11 1.11-5.87 5.87 1.11 1.11-5.87 5.87 1.11 1.11-5.87 5.87 1.11 1.11-5.87 5.87 1.11 1.1-5.87-5.87-1.11Z" fill="#FB0"/><path d="m77.05 32.76-5.86-1.11-5.87-1.11-1.12 5.87 5.87 1.11 5.87 1.11-1.1 5.87-1.12 5.87 5.87 1.11 1.12-5.87 1.1-5.87 1.11-5.88-5.87-1.1ZM67.853 49.262l-1.109 5.866 5.866 1.109 1.109-5.867-5.866-1.108ZM60.874 54.027l-1.108 5.866 5.876 1.109 1.108-5.866-5.876-1.11ZM53.898 58.785l-1.109 5.867 5.866 1.108 1.109-5.866-5.866-1.109ZM58.33 35.302l-1.11 5.865 5.865 1.111 1.11-5.865-5.865-1.111ZM46.918 63.544l-1.107 5.866 5.867 1.107 1.107-5.867-5.867-1.107ZM51.352 40.069l-1.105 5.866 5.876 1.107 1.105-5.867-5.876-1.106Z" fill="#202126"/><path d="m44.385 44.819-1.113 5.875 5.866 1.111 1.113-5.875-5.866-1.111ZM34.07 67.19l1.11-5.87 1.11-5.87-5.87-1.1-1.11 5.86-1.1 5.87-1.12 5.87 5.87 1.11 5.87 1.11 5.87 1.11 1.12-5.87-5.88-1.11-5.87-1.11Z" fill="#202126"/><path d="m37.395 49.59-1.11 5.867 5.867 1.108 1.109-5.866-5.867-1.108Z" fill="#202126"/></g><defs><clipPath id="a"><path fill="#fff" d="M0 0h104v108.73H0z"/></clipPath></defs></svg>