<svg width="84" height="95" fill="none" xmlns="http://www.w3.org/2000/svg"><g clip-path="url(#a)"><path d="M83.22 65.06h-5.95v5.91h5.95v-5.91ZM83.22 59.15h-5.95v5.91h5.95v-5.91ZM83.22 53.23h-5.95v5.92h5.95v-5.92ZM77.28 70.97h-5.95v5.92h5.95v-5.92Z" fill="#202126"/><path d="M77.28 65.06h-5.95v5.91h5.95v-5.91ZM77.28 59.15h-5.95v5.91h5.95v-5.91Z" fill="#069FC9"/><path d="M77.28 53.23h-5.95v5.92h5.95v-5.92Z" fill="#56CFF0"/><path d="M77.28 47.32h-5.95v5.91h5.95v-5.91ZM71.33 76.88h-5.95v5.91h5.95v-5.91Z" fill="#202126"/><path d="M71.33 70.97h-5.95v5.92h5.95v-5.92ZM71.33 65.06h-5.95v5.91h5.95v-5.91ZM71.33 59.15h-5.95v5.91h5.95v-5.91Z" fill="#069FC9"/><path d="M71.33 53.23h-5.95v5.92h5.95v-5.92Z" fill="#56CFF0"/><path d="M71.33 47.32h-5.95v5.91h5.95v-5.91Z" fill="#56CFF0"/><path d="M71.33 41.4h-5.95v5.92h5.95V41.4ZM65.38 82.8h-5.94v5.92h5.94V82.8Z" fill="#202126"/><path d="M65.38 76.88h-5.94v5.91h5.94v-5.91Z" fill="#069FC9"/><path d="M65.38 70.97h-5.94v5.92h5.94v-5.92ZM65.38 65.06h-5.94v5.91h5.94v-5.91ZM65.38 59.15h-5.94v5.91h5.94v-5.91Z" fill="#069FC9"/><path d="M65.38 53.23h-5.94v5.92h5.94v-5.92Z" fill="#56CFF0"/><path d="M65.38 47.32h-5.94v5.91h5.94v-5.91ZM65.38 41.4h-5.94v5.92h5.94V41.4Z" fill="#56CFF0"/><path d="M65.38 35.49h-5.94v5.92h5.94v-5.92ZM59.45 88.71H53.5v5.91h5.95v-5.91Z" fill="#202126"/><path d="M59.45 82.8H53.5v5.92h5.95V82.8ZM59.45 76.88H53.5v5.91h5.95v-5.91Z" fill="#069FC9"/><path d="M59.45 70.97H53.5v5.92h5.95v-5.92ZM59.45 65.06H53.5v5.91h5.95v-5.91ZM59.45 59.15H53.5v5.91h5.95v-5.91Z" fill="#069FC9"/><path d="M59.45 53.23H53.5v5.92h5.95v-5.92Z" fill="#56CFF0"/><path d="M59.45 47.32H53.5v5.91h5.95v-5.91ZM59.45 41.4H53.5v5.92h5.95V41.4Z" fill="#56CFF0"/><path d="M59.45 35.49H53.5v5.92h5.95v-5.92Z" fill="#56CFF0"/><path d="M59.45 29.57H53.5v5.91h5.95v-5.91ZM59.45 11.83H53.5v5.91h5.95v-5.91ZM53.5 88.71h-5.95v5.91h5.95v-5.91Z" fill="#202126"/><path d="M53.5 82.8h-5.95v5.92h5.95V82.8ZM53.5 76.88h-5.95v5.91h5.95v-5.91Z" fill="#069FC9"/><path d="M53.5 70.97h-5.95v5.92h5.95v-5.92ZM53.5 65.06h-5.95v5.91h5.95v-5.91ZM53.5 59.15h-5.95v5.91h5.95v-5.91Z" fill="#069FC9"/><path d="M53.5 53.23h-5.95v5.92h5.95v-5.92Z" fill="#56CFF0"/><path d="M53.5 47.32h-5.95v5.91h5.95v-5.91ZM53.5 41.4h-5.95v5.92h5.95V41.4Z" fill="#56CFF0"/><path d="M53.5 35.49h-5.95v5.92h5.95v-5.92Z" fill="#56CFF0"/><path d="M53.5 29.57h-5.95v5.91h5.95v-5.91Z" fill="#AD5B57"/><path d="M53.5 23.66h-5.95v5.91h5.95v-5.91ZM53.5 17.74h-5.95v5.92h5.95v-5.92Z" fill="#202126"/><path d="M53.5 11.83h-5.95v5.91h5.95v-5.91Z" fill="#F2BF33"/><path d="M53.5 5.92h-5.95v5.91h5.95V5.92ZM47.55 88.71h-5.94v5.91h5.94v-5.91Z" fill="#202126"/><path d="M47.55 82.8h-5.94v5.92h5.94V82.8ZM47.55 76.88h-5.94v5.91h5.94v-5.91Z" fill="#069FC9"/><path d="M47.55 70.97h-5.94v5.92h5.94v-5.92ZM47.55 65.06h-5.94v5.91h5.94v-5.91ZM47.55 59.15h-5.94v5.91h5.94v-5.91Z" fill="#069FC9"/><path d="M47.55 53.23h-5.94v5.92h5.94v-5.92Z" fill="#56CFF0"/><path d="M47.55 47.32h-5.94v5.91h5.94v-5.91ZM47.55 41.4h-5.94v5.92h5.94V41.4Z" fill="#56CFF0"/><path d="M47.55 35.49h-5.94v5.92h5.94v-5.92Z" fill="#56CFF0"/><path d="M47.55 29.57h-5.94v5.91h5.94v-5.91ZM47.55 23.66h-5.94v5.91h5.94v-5.91Z" fill="#AD5B57"/><path d="M47.55 17.74h-5.94v5.92h5.94v-5.92Z" fill="#7D423F"/><path d="M47.55 11.83h-5.94v5.91h5.94v-5.91ZM47.55 5.92h-5.94v5.91h5.94V5.92Z" fill="#F2BF33"/><path d="M47.55 0h-5.94v5.92h5.94V0ZM41.61 88.71h-5.94v5.91h5.94v-5.91Z" fill="#202126"/><path d="M41.61 82.8h-5.94v5.92h5.94V82.8ZM41.61 76.88h-5.94v5.91h5.94v-5.91Z" fill="#069FC9"/><path d="M41.61 70.97h-5.94v5.92h5.94v-5.92ZM41.61 65.06h-5.94v5.91h5.94v-5.91ZM41.61 59.15h-5.94v5.91h5.94v-5.91Z" fill="#069FC9"/><path d="M41.61 53.23h-5.94v5.92h5.94v-5.92Z" fill="#56CFF0"/><path d="M41.61 47.32h-5.94v5.91h5.94v-5.91ZM41.61 41.4h-5.94v5.92h5.94V41.4Z" fill="#56CFF0"/><path d="M41.61 35.49h-5.94v5.92h5.94v-5.92Z" fill="#56CFF0"/><path d="M41.61 29.57h-5.94v5.91h5.94v-5.91ZM41.61 23.66h-5.94v5.91h5.94v-5.91Z" fill="#AD5B57"/><path d="M41.61 17.74h-5.94v5.92h5.94v-5.92Z" fill="#7D423F"/><path d="M41.61 11.83h-5.94v5.91h5.94v-5.91ZM41.61 5.92h-5.94v5.91h5.94V5.92Z" fill="#F2BF33"/><path d="M41.61 0h-5.94v5.92h5.94V0ZM35.67 88.71h-5.95v5.91h5.95v-5.91Z" fill="#202126"/><path d="M35.67 82.8h-5.95v5.92h5.95V82.8ZM35.67 76.88h-5.95v5.91h5.95v-5.91Z" fill="#069FC9"/><path d="M35.67 70.97h-5.95v5.92h5.95v-5.92ZM35.67 65.06h-5.95v5.91h5.95v-5.91ZM35.67 59.15h-5.95v5.91h5.95v-5.91Z" fill="#069FC9"/><path d="M35.67 53.23h-5.95v5.92h5.95v-5.92Z" fill="#56CFF0"/><path d="M35.67 47.32h-5.95v5.91h5.95v-5.91Z" fill="#56CFF0"/><path d="M35.67 41.4h-5.95v5.92h5.95V41.4Z" fill="#C5F0FC"/><path d="M35.67 35.49h-5.95v5.92h5.95v-5.92Z" fill="#56CFF0"/><path d="M35.67 29.57h-5.95v5.91h5.95v-5.91Z" fill="#AD5B57"/><path d="M35.67 23.66h-5.95v5.91h5.95v-5.91ZM35.67 17.74h-5.95v5.92h5.95v-5.92Z" fill="#202126"/><path d="M35.67 11.83h-5.95v5.91h5.95v-5.91Z" fill="#F2BF33"/><path d="M35.67 5.92h-5.95v5.91h5.95V5.92ZM29.72 88.71h-5.94v5.91h5.94v-5.91Z" fill="#202126"/><path d="M29.72 82.8h-5.94v5.92h5.94V82.8ZM29.72 76.88h-5.94v5.91h5.94v-5.91Z" fill="#069FC9"/><path d="M29.72 70.97h-5.94v5.92h5.94v-5.92Z" fill="#C5F0FC"/><path d="M29.72 65.06h-5.94v5.91h5.94v-5.91ZM29.72 59.15h-5.94v5.91h5.94v-5.91Z" fill="#069FC9"/><path d="M29.72 53.23h-5.94v5.92h5.94v-5.92Z" fill="#56CFF0"/><path d="M29.72 47.32h-5.94v5.91h5.94v-5.91Z" fill="#C5F0FC"/><path d="M29.72 41.4h-5.94v5.92h5.94V41.4Z" fill="#56CFF0"/><path d="M29.72 35.49h-5.94v5.92h5.94v-5.92Z" fill="#56CFF0"/><path d="M29.72 29.57h-5.94v5.91h5.94v-5.91ZM29.72 11.83h-5.94v5.91h5.94v-5.91ZM23.79 82.8h-5.95v5.92h5.95V82.8Z" fill="#202126"/><path d="M23.79 76.88h-5.95v5.91h5.95v-5.91Z" fill="#069FC9"/><path d="M23.79 70.97h-5.95v5.92h5.95v-5.92Z" fill="#069FC9"/><path d="M23.79 65.06h-5.95v5.91h5.95v-5.91ZM23.79 59.15h-5.95v5.91h5.95v-5.91ZM23.79 53.23h-5.95v5.92h5.95v-5.92Z" fill="#C5F0FC"/><path d="M23.79 47.32h-5.95v5.91h5.95v-5.91ZM23.79 41.4h-5.95v5.92h5.95V41.4Z" fill="#56CFF0"/><path d="M23.79 35.49h-5.95v5.92h5.95v-5.92ZM17.84 76.88h-5.95v5.91h5.95v-5.91Z" fill="#202126"/><path d="M17.84 70.97h-5.95v5.92h5.95v-5.92ZM17.84 65.06h-5.95v5.91h5.95v-5.91ZM17.84 59.15h-5.95v5.91h5.95v-5.91Z" fill="#069FC9"/><path d="M17.84 53.23h-5.95v5.92h5.95v-5.92Z" fill="#56CFF0"/><path d="M17.84 47.32h-5.95v5.91h5.95v-5.91Z" fill="#56CFF0"/><path d="M17.84 41.4h-5.95v5.92h5.95V41.4ZM11.9 70.97H5.95v5.92h5.95v-5.92Z" fill="#202126"/><path d="M11.9 65.06H5.95v5.91h5.95v-5.91ZM11.9 59.15H5.95v5.91h5.95v-5.91Z" fill="#069FC9"/><path d="M11.9 53.23H5.95v5.92h5.95v-5.92Z" fill="#56CFF0"/><path d="M11.9 47.32H5.95v5.91h5.95v-5.91ZM5.95 65.06H0v5.91h5.95v-5.91ZM5.95 59.15H0v5.91h5.95v-5.91ZM5.95 53.23H0v5.92h5.95v-5.92Z" fill="#202126"/></g><defs><clipPath id="a"><path fill="#fff" d="M0 0h83.22v94.63H0z"/></clipPath></defs></svg>