<svg width="101" height="56" fill="none" xmlns="http://www.w3.org/2000/svg"><g clip-path="url(#a)"><path d="M100.75 44.55H89.56v11.14h11.19V44.55Z" fill="#B2B5B0"/><path d="M89.56 44.55h-11.2v11.14h11.2V44.55Z" fill="#787A77"/><path d="M89.56 33.42h-11.2v11.13h11.2V33.42ZM78.36 44.55H67.17v11.14h11.19V44.55Z" fill="#B2B5B0"/><path d="M78.36 33.42H67.17v11.13h11.19V33.42Z" fill="#787A77"/><path d="M78.36 22.26H67.17v11.16h11.19V22.26Z" fill="#E7EBE4"/><path d="M67.17 44.55h-11.2v11.14h11.2V44.55Z" fill="#B2B5B0"/><path d="M67.17 33.42h-11.2v11.13h11.2V33.42Z" fill="#B2B5B0"/><path d="M67.17 22.26h-11.2v11.16h11.2V22.26Z" fill="#787A77"/><path d="M67.17 11.14h-11.2v11.13h11.2V11.14Z" fill="#E7EBE4"/><path d="M55.97 44.55h-11.2v11.14h11.2V44.55Z" fill="#787A77"/><path d="M55.97 33.42h-11.2v11.13h11.2V33.42ZM55.97 22.26h-11.2v11.16h11.2V22.26Z" fill="#B2B5B0"/><path d="M55.97 11.14h-11.2v11.13h11.2V11.14ZM55.97 0h-11.2v11.14h11.2V0Z" fill="#E7EBE4"/><path d="M44.77 44.55H33.59v11.14h11.18V44.55Z" fill="#787A77"/><path d="M44.77 33.42H33.59v11.13h11.18V33.42Z" fill="#787A77"/><path d="M44.77 22.26H33.59v11.16h11.18V22.26Z" fill="#B2B5B0"/><path d="M44.77 11.14H33.59v11.13h11.18V11.14ZM44.77 0H33.59v11.14h11.18V0Z" fill="#E7EBE4"/><path d="M33.58 44.55H22.39v11.14h11.19V44.55Z" fill="#787A77"/><path d="M33.58 33.42H22.39v11.13h11.19V33.42Z" fill="#787A77"/><path d="M33.58 22.26H22.39v11.16h11.19V22.26Z" fill="#B2B5B0"/><path d="M33.58 11.14H22.39v11.13h11.19V11.14Z" fill="#E7EBE4"/><path d="M22.39 44.55h-11.2v11.14h11.2V44.55Z" fill="#B2B5B0"/><path d="M22.39 33.42h-11.2v11.13h11.2V33.42Z" fill="#B2B5B0"/><path d="M22.39 22.26h-11.2v11.16h11.2V22.26Z" fill="#E7EBE4"/><path d="M11.19 44.55H0v11.14h11.19V44.55Z" fill="#B2B5B0"/></g><defs><clipPath id="a"><path fill="#fff" d="M0 0h100.75v55.69H0z"/></clipPath></defs></svg>