<svg width="1228" height="94" fill="none" xmlns="http://www.w3.org/2000/svg"><path d="M207.634 42.932h-7.157v7.155h14.321v-7.155h-7.164ZM207.634 21.466h-7.157v7.155h7.157v-7.155Z" fill="#C96965"/><path d="M200.477 28.621h-7.163v7.156h7.163V28.62ZM186.157 64.404h7.157v-7.168h-7.157v7.168ZM193.314 21.466v-7.155h-7.157v7.155h7.157ZM179 50.087v7.15h7.157v-7.15H179ZM186.157 7.155H179v7.156h7.157V7.155ZM150.353 35.777h-7.157v14.31h14.321v-7.155h-7.164v-7.155ZM150.353 14.31h-7.157v7.156h7.157v-7.155ZM128.882 35.777v7.155h7.151v-14.31h-7.151v7.155ZM121.719 50.087h7.163v-7.155h-7.163v7.155ZM100.236 50.087h7.163v-7.155h-7.163v7.155ZM93.072 57.236h7.164v-7.149h-7.164v7.15ZM85.915 42.932v7.155h7.157v-7.155h-7.157ZM57.281 42.932h-7.163v7.155H42.96v7.15h21.477v-7.15h-7.157v-7.155ZM28.64 42.932h7.158v-7.155H28.64v7.155ZM14.32 42.932v7.155h14.32v-7.155H14.32ZM7.157 35.777v7.155h7.163v-7.155H7.157Z" fill="#C96965"/><path d="M214.798 64.404H0V93h221.961V64.404h-7.163Z" fill="#5E2725"/><path d="M214.798 28.621v-7.155h-7.164v7.155h-7.157v7.156h14.321v7.155h7.163v-14.31h-7.163Z" fill="#873835"/><path d="M207.634 14.31V7.156h-7.157v14.311h7.157v-7.155Z" fill="#873835"/><path d="M200.477 21.466h-7.163v7.155h7.163v-7.155Z" fill="#873835"/><path d="M193.314 28.621H179v-7.155h-7.163v-7.155h-7.157v7.155h-7.163v-7.155h-7.164v7.155h-7.157v-7.155h-7.163v7.155h-14.314v7.155h-7.163v7.156h-7.164v14.31h-7.156v7.143h-7.164v-7.143h-7.157v-7.155h7.157v-7.155h7.164V21.466h21.483v-7.155h-14.327V7.155h-7.156v7.156h-7.164v14.31H78.758v-14.31H64.432V7.155h-7.15v14.311h14.32v7.155h-7.164v7.156h-7.157V21.466h-14.32v7.155h-7.163v-7.155H28.64v-7.155h-7.163v14.31H7.157v-7.155H0v42.932h186.157v-7.162H179v-7.149h7.157v7.143h7.151v7.168h28.647v-14.31h-28.647v-7.156h7.163v-7.155h-7.163V28.62h.006ZM7.157 35.777h7.163v7.155h14.32v-7.155h7.151v7.155h-7.15v7.155H14.32v-7.155H7.156v-7.155Zm50.124 21.46h-14.32v-7.15h7.157v-7.155h7.163v7.155h7.157v7.143h-7.157v.006Zm78.752-28.616v14.311h-7.151v7.155h-7.156v-7.155h7.156v-14.31h7.151Zm35.804 14.311h-14.32v7.155h-14.321v-14.31h7.157v7.155h7.164v-7.155h7.163V28.62h7.157v7.156H179v7.155h-7.163ZM193.314 7.155h-7.157v7.156h7.157V7.155Z" fill="#873835"/><path d="M150.353 7.155h-7.157v7.156h7.157V7.155ZM93.072 42.932v7.155h7.163v-7.155h-7.163ZM35.797 7.155h-7.156v7.156h7.156V7.155Z" fill="#873835"/><path d="M214.798 50.087h7.163v-7.155h-7.163v7.155ZM214.798 7.155h-7.164v14.311h7.164v7.155h7.163V7.155h-7.163ZM207.634 35.777h-7.157v7.155h14.321v-7.155h-7.164ZM193.314 50.087h7.163v-7.155h-7.163v7.155ZM200.477 14.31V7.156h-7.163v14.311h7.163v-7.155ZM193.314 21.466h-7.157v-7.155H179V7.155h-28.647v7.156h7.164v7.155h7.163v-7.155h7.157v7.155H179v7.155h14.314v-7.155ZM171.837 28.621h-7.157v7.156h-7.163v7.155H179v-7.155h-7.163V28.62ZM128.882 7.155h-21.483v7.156h14.32v7.155h14.314v-7.155h7.163V7.155h-14.314Z" fill="#79B346"/><path d="M107.399 21.466h-7.164v14.31h-7.163v7.156H107.4v-7.155h7.157V28.62h7.163v-7.155h-14.32ZM93.072 21.466v-7.155h7.163V7.155H64.438v7.156h14.327v14.31h14.307v-7.155ZM57.281 21.466v14.31h7.157v-7.155h7.163v-7.155h-14.32ZM57.281 7.155H35.797v7.156h-7.156v7.155h7.156v7.155h7.164v-7.155h14.32V7.156ZM21.484 7.155H0v14.311h7.157v7.155h14.327v-14.31h7.156V7.155h-7.156Z" fill="#79B346"/><path d="M214.798 0H0v7.155h221.961V0h-7.163Z" fill="#9BE65A"/><path d="M429.595 42.932h-7.163v7.155h14.32v-7.155h-7.157ZM429.595 21.466h-7.163v7.155h7.163v-7.155ZM422.432 28.621h-7.163v7.156h7.163V28.62ZM408.118 64.404h7.151v-7.168h-7.151v7.168ZM415.269 21.466v-7.155h-7.151v7.155h7.151ZM400.961 50.087v7.15h7.157v-7.15h-7.157ZM408.118 7.155h-7.157v7.156h7.157V7.155ZM372.314 35.777h-7.163v14.31h14.327v-7.155h-7.164v-7.155ZM372.314 14.31h-7.163v7.156h7.163v-7.155ZM350.837 35.777v7.155h7.157v-14.31h-7.157v7.155ZM343.68 50.087h7.157v-7.155h-7.157v7.155ZM322.197 50.087h7.156v-7.155h-7.156v7.155ZM315.033 57.236h7.164v-7.149h-7.164v7.15ZM307.876 42.932v7.155h7.157v-7.155h-7.157ZM279.236 42.932h-7.164v7.155h-7.157v7.15h21.484v-7.15h-7.163v-7.155ZM250.602 42.932h7.15v-7.155h-7.15v7.155ZM236.281 42.932v7.155h14.321v-7.155h-14.321ZM229.118 35.777v7.155h7.163v-7.155h-7.163Z" fill="#C96965"/><path d="M436.752 64.404H221.961V93h221.955V64.404h-7.164Z" fill="#5E2725"/><path d="M436.752 28.621v-7.155h-7.157v7.155h-7.163v7.156h14.32v7.155h7.164v-14.31h-7.164Z" fill="#873835"/><path d="M429.595 14.31V7.156h-7.163v14.311h7.163v-7.155ZM422.432 21.466h-7.163v7.155h7.163v-7.155Z" fill="#873835"/><path d="M415.269 28.621h-14.314v-7.155h-7.164v-7.155h-7.157v7.155h-7.163v-7.155h-7.163v7.155h-7.157v-7.155h-7.163v7.155h-14.314v7.155h-7.164v7.156h-7.163v14.31h-7.157v7.143h-7.163v-7.143h-7.157v-7.155h7.157v-7.155h7.163V21.466h21.484v-7.155h-14.327V7.155h-7.157v7.156h-7.163v14.31h-14.314v-14.31h-14.327V7.155h-7.157v14.311h14.32v7.155h-7.163v7.156h-7.157V21.466h-14.314v7.155h-7.163v-7.155h-7.151v-7.155h-7.163v14.31h-14.32v-7.155h-7.157v42.932h186.157v-7.162h-7.157v-7.149h7.157v7.143h7.151v7.168h28.647v-14.31h-28.647v-7.156h7.163v-7.155h-7.163V28.62Zm-186.151 7.156h7.163v7.155h14.32v-7.155h7.151v7.155h-7.151v7.155h-14.32v-7.155h-7.163v-7.155Zm50.118 21.46h-14.321v-7.15h7.157v-7.155h7.164v7.155h7.157v7.143h-7.157v.006Zm78.758-28.616v14.311h-7.151v7.155h-7.157v-7.155h7.157v-14.31h7.151Zm35.804 14.311h-14.32v7.155h-14.321v-14.31h7.157v7.155h7.164v-7.155h7.163V28.62h7.157v7.156h7.163v7.155h-7.163ZM415.269 7.155h-7.151v7.156h7.151V7.155Z" fill="#873835"/><path d="M372.314 7.155h-7.163v7.156h7.163V7.155ZM315.033 42.932v7.155h7.163v-7.155h-7.163ZM257.752 7.155h-7.151v7.156h7.151V7.155Z" fill="#873835"/><path d="M436.752 50.087h7.164v-7.155h-7.164v7.155ZM436.752 7.155h-7.157v14.311h7.157v7.155h7.163V7.155h-7.163ZM429.595 35.777h-7.163v7.155h14.32v-7.155h-7.157ZM415.269 50.087h7.163v-7.155h-7.163v7.155ZM422.432 14.31V7.156h-7.163v14.311h7.163v-7.155ZM415.269 21.466h-7.151v-7.155h-7.157V7.155h-28.647v7.156h7.164v7.155h7.156v-7.155h7.164v7.155h7.163v7.155h14.308v-7.155ZM393.798 28.621h-7.164v7.156h-7.156v7.155h21.483v-7.155h-7.163V28.62ZM350.837 7.155h-21.484v7.156h14.327v7.155h14.314v-7.155h7.157V7.155h-14.314Z" fill="#79B346"/><path d="M329.353 21.466h-7.157v14.31h-7.163v7.156h14.32v-7.155h7.164V28.62h7.163v-7.155h-14.327ZM315.033 21.466v-7.155h7.163V7.155h-35.797v7.156h14.32v14.31h14.314v-7.155ZM279.236 21.466v14.31h7.163v-7.155h7.157v-7.155h-14.32Z" fill="#79B346"/><path d="M279.236 7.155h-21.484v7.156h-7.151v7.155h7.151v7.155h7.163v-7.155h14.321V7.156ZM243.438 7.155h-21.477v14.311h7.157v7.155h14.32v-14.31h7.163V7.155h-7.163Z" fill="#79B346"/><path d="M436.752 0H221.961v7.155h221.955V0h-7.164Z" fill="#9BE65A"/><path d="M651.55 42.932h-7.157v7.155h14.32v-7.155h-7.163ZM651.55 21.466h-7.157v7.155h7.157v-7.155Z" fill="#C96965"/><path d="M644.393 28.621h-7.163v7.156h7.163V28.62ZM630.073 64.404h7.157v-7.168h-7.157v7.168ZM637.23 21.466v-7.155h-7.157v7.155h7.157Z" fill="#C96965"/><path d="M622.916 50.087v7.15h7.157v-7.15h-7.157ZM630.073 7.155h-7.157v7.156h7.157V7.155ZM594.269 35.777h-7.157v14.31h14.32v-7.155h-7.163v-7.155ZM594.269 14.31h-7.157v7.156h7.157v-7.155ZM572.798 35.777v7.155h7.151v-14.31h-7.151v7.155ZM565.635 50.087h7.163v-7.155h-7.163v7.155ZM544.151 50.087h7.163v-7.155h-7.163v7.155Z" fill="#C96965"/><path d="M536.994 57.236h7.157v-7.149h-7.157v7.15ZM529.831 42.932v7.155h7.163v-7.155h-7.163ZM501.197 42.932h-7.164v7.155h-7.157v7.15h21.478v-7.15h-7.157v-7.155ZM472.556 42.932h7.157v-7.155h-7.157v7.155ZM458.236 42.932v7.155h14.32v-7.155h-14.32ZM451.079 35.777v7.155h7.157v-7.155h-7.157Z" fill="#C96965"/><path d="M658.713 64.404H443.916V93h221.961V64.404h-7.164Z" fill="#5E2725"/><path d="M658.713 28.621v-7.155h-7.163v7.155h-7.157v7.156h14.32v7.155h7.164v-14.31h-7.164Z" fill="#873835"/><path d="M651.55 14.31V7.156h-7.157v14.311h7.157v-7.155Z" fill="#873835"/><path d="M644.393 21.466h-7.163v7.155h7.163v-7.155Z" fill="#873835"/><path d="M637.23 28.621h-14.314v-7.155h-7.164v-7.155h-7.156v7.155h-7.164v-7.155h-7.163v7.155h-7.157v-7.155h-7.163v7.155h-14.314v7.155h-7.164v7.156h-7.163v14.31h-7.157v7.143h-7.163v-7.143h-7.157v-7.155h7.157v-7.155h7.163V21.466h21.484v-7.155h-14.321V7.155h-7.157v7.156h-7.163v14.31H522.68v-14.31h-14.326V7.155h-7.157v14.311h14.32v7.155h-7.163v7.156h-7.157V21.466h-14.321v7.155h-7.163v-7.155h-7.15v-7.155h-7.164v14.31h-14.32v-7.155h-7.157v42.932h186.157v-7.162h-7.157v-7.149h7.157v7.143h7.151v7.168h28.647v-14.31H637.23v-7.156h7.163v-7.155h-7.163V28.62Zm-186.151 7.156h7.163v7.155h14.321v-7.155h7.15v7.155h-7.15v7.155h-14.321v-7.155h-7.163v-7.155Zm50.118 21.46h-14.321v-7.15h7.157v-7.155h7.164v7.155h7.157v7.143h-7.157v.006Zm78.752-28.616v14.311h-7.151v7.155h-7.157v-7.155h7.157v-14.31h7.151Zm35.803 14.311h-14.32v7.155h-14.32v-14.31h7.157v7.155h7.163v-7.155h7.164V28.62h7.156v7.156h7.164v7.155h-7.164ZM637.23 7.155h-7.157v7.156h7.157V7.155Z" fill="#873835"/><path d="M594.269 7.155h-7.157v7.156h7.157V7.155ZM536.994 42.932v7.155h7.157v-7.155h-7.157ZM479.713 7.155h-7.157v7.156h7.157V7.155Z" fill="#873835"/><path d="M658.713 50.087h7.164v-7.155h-7.164v7.155ZM658.713 7.155h-7.163v14.311h7.163v7.155h7.164V7.155h-7.164ZM651.55 35.777h-7.157v7.155h14.32v-7.155h-7.163ZM637.23 50.087h7.163v-7.155h-7.163v7.155ZM644.393 14.31V7.156h-7.163v14.311h7.163v-7.155ZM637.23 21.466h-7.157v-7.155h-7.157V7.155h-28.647v7.156h7.163v7.155h7.164v-7.155h7.157v7.155h7.163v7.155h14.314v-7.155ZM615.753 28.621h-7.157v7.156h-7.164v7.155h21.484v-7.155h-7.163V28.62ZM572.798 7.155h-21.484v7.156h14.321v7.155h14.314v-7.155h7.163V7.155h-14.314Z" fill="#79B346"/><path d="M551.314 21.466h-7.163v14.31h-7.157v7.156h14.32v-7.155h7.164V28.62h7.157v-7.155h-14.321ZM536.994 21.466v-7.155h7.157V7.155h-35.797v7.156h14.326v14.31h14.314v-7.155ZM501.197 21.466v14.31h7.157v-7.155h7.163v-7.155h-14.32Z" fill="#79B346"/><path d="M501.197 7.155h-21.484v7.156h-7.157v7.155h7.157v7.155h7.163v-7.155h14.321V7.156ZM465.399 7.155h-21.483v14.311h7.163v7.155h14.32v-14.31h7.157V7.155h-7.157Z" fill="#79B346"/><path d="M658.713 0H443.916v7.155h221.961V0h-7.164Z" fill="#9BE65A"/><path d="M873.511 42.932h-7.163v7.155h14.32v-7.155h-7.157ZM873.511 21.466h-7.163v7.155h7.163v-7.155ZM866.348 28.621h-7.164v7.156h7.164V28.62ZM852.034 64.404h7.15v-7.168h-7.15v7.168ZM859.184 21.466v-7.155h-7.15v7.155h7.15ZM844.877 50.087v7.15h7.157v-7.15h-7.157ZM852.034 7.155h-7.157v7.156h7.157V7.155ZM816.23 35.777h-7.163v14.31h14.326v-7.155h-7.163v-7.155ZM816.23 14.31h-7.163v7.156h7.163v-7.155ZM794.753 35.777v7.155h7.157v-14.31h-7.157v7.155ZM787.596 50.087h7.157v-7.155h-7.157v7.155ZM766.112 50.087h7.157v-7.155h-7.157v7.155ZM758.949 57.236h7.163v-7.149h-7.163v7.15Z" fill="#C96965"/><path d="M751.792 42.932v7.155h7.157v-7.155h-7.157ZM723.151 42.932h-7.163v7.155h-7.157v7.15h21.484v-7.15h-7.164v-7.155ZM694.517 42.932h7.151v-7.155h-7.151v7.155ZM680.197 42.932v7.155h14.32v-7.155h-14.32ZM673.034 35.777v7.155h7.163v-7.155h-7.163Z" fill="#C96965"/><path d="M880.668 64.404H665.877V93h221.954V64.404h-7.163Z" fill="#5E2725"/><path d="M880.668 28.621v-7.155h-7.157v7.155h-7.163v7.156h14.32v7.155h7.163v-14.31h-7.163Z" fill="#873835"/><path d="M873.511 14.31V7.156h-7.163v14.311h7.163v-7.155ZM866.348 21.466h-7.164v7.155h7.164v-7.155Z" fill="#873835"/><path d="M859.184 28.621H844.87v-7.155h-7.163v-7.155h-7.157v7.155h-7.163v-7.155h-7.164v7.155h-7.157v-7.155h-7.163v7.155h-14.314v7.155h-7.163v7.156h-7.163v14.31h-7.157v7.143h-7.164v-7.143h-7.163v-7.155h7.163v-7.155h7.164V21.466h21.483v-7.155h-14.326V7.155h-7.157v7.156h-7.164v14.31h-14.314v-14.31h-14.326V7.155h-7.157v14.311h14.32v7.155h-7.163v7.156h-7.157V21.466h-14.32v7.155h-7.164v-7.155h-7.15v-7.155h-7.164v14.31h-14.32v-7.155h-7.157v42.932h186.157v-7.162h-7.157v-7.149h7.157v7.143h7.151v7.168h28.647v-14.31h-28.647v-7.156h7.163v-7.155h-7.163V28.62h.006Zm-186.151 7.156h7.164v7.155h14.32v-7.155h7.151v7.155h-7.151v7.155h-14.32v-7.155h-7.164v-7.155Zm50.118 21.46h-14.32v-7.15h7.157v-7.155h7.163v7.155h7.157v7.143h-7.157v.006ZM801.91 28.62v14.311h-7.151v7.155h-7.157v-7.155h7.157v-14.31h7.151Zm35.803 14.311h-14.32v7.155h-14.32v-14.31h7.157v7.155h7.163v-7.155h7.163V28.62h7.157v7.156h7.164v7.155h-7.164ZM859.184 7.155h-7.15v7.156h7.15V7.155Z" fill="#873835"/><path d="M816.23 7.155h-7.164v7.156h7.164V7.155ZM758.949 42.932v7.155h7.163v-7.155h-7.163ZM701.668 7.155h-7.151v7.156h7.151V7.155Z" fill="#873835"/><path d="M880.668 50.087h7.163v-7.155h-7.163v7.155ZM880.668 7.155h-7.157v14.311h7.157v7.155h7.163V7.155h-7.163ZM873.511 35.777h-7.163v7.155h14.32v-7.155h-7.157ZM859.184 50.087h7.164v-7.155h-7.164v7.155ZM866.348 14.31V7.156h-7.164v14.311h7.164v-7.155Z" fill="#79B346"/><path d="M859.184 21.466h-7.15v-7.155h-7.157V7.155H816.23v7.156h7.163v7.155h7.157v-7.155h7.164v7.155h7.163v7.155h14.307v-7.155ZM837.713 28.621h-7.163v7.156h-7.157v7.155h21.484v-7.155h-7.164V28.62ZM794.753 7.155h-21.484v7.156h14.327v7.155h14.314v-7.155h7.157V7.155h-14.314Z" fill="#79B346"/><path d="M773.269 21.466h-7.157v14.31h-7.163v7.156h14.32v-7.155h7.163V28.62h7.164v-7.155h-14.327ZM758.949 21.466v-7.155h7.163V7.155h-35.797v7.156h14.32v14.31h14.314v-7.155ZM723.151 21.466v14.31h7.164v-7.155h7.157v-7.155h-14.321Z" fill="#79B346"/><path d="M723.151 7.155h-21.483v7.156h-7.151v7.155h7.151v7.155h7.163v-7.155h14.32V7.156Z" fill="#79B346"/><path d="M687.354 7.155h-21.477v14.311h7.157v7.155h14.32v-14.31h7.163V7.155h-7.163Z" fill="#79B346"/><path d="M880.668 0H665.876v7.155h221.955V0h-7.163Z" fill="#9BE65A"/><path d="M1095.47 42.932h-7.16v7.155h14.32v-7.155h-7.16ZM1095.47 21.466h-7.16v7.155h7.16v-7.155ZM1088.31 28.621h-7.16v7.156h7.16V28.62ZM1073.99 64.404h7.16v-7.168h-7.16v7.168ZM1081.15 21.466v-7.155h-7.16v7.155h7.16ZM1066.83 50.087v7.15h7.16v-7.15h-7.16ZM1073.99 7.155h-7.16v7.156h7.16V7.155ZM1038.18 35.777h-7.15v14.31h14.32v-7.155h-7.17v-7.155ZM1038.18 14.31h-7.15v7.156h7.15v-7.155ZM1016.71 35.777v7.155h7.15v-14.31h-7.15v7.155ZM1009.55 50.087h7.16v-7.155h-7.16v7.155ZM988.067 50.087h7.163v-7.155h-7.163v7.155ZM980.91 57.236h7.157v-7.149h-7.157v7.15ZM973.747 42.932v7.155h7.163v-7.155h-7.163ZM945.112 42.932h-7.163v7.155h-7.157v7.15h21.477v-7.15h-7.157v-7.155ZM916.472 42.932h7.157v-7.155h-7.157v7.155ZM902.151 42.932v7.155h14.321v-7.155h-14.321ZM894.988 35.777v7.155h7.164v-7.155h-7.164Z" fill="#C96965"/><path d="M1102.63 64.404H887.831V93h221.959V64.404h-7.16Z" fill="#5E2725"/><path d="M1102.63 28.621v-7.155h-7.16v7.155h-7.16v7.156h14.32v7.155h7.16v-14.31h-7.16Z" fill="#873835"/><path d="M1095.47 14.31V7.156h-7.16v14.311h7.16v-7.155ZM1088.31 21.466h-7.16v7.155h7.16v-7.155Z" fill="#873835"/><path d="M1081.15 28.621h-14.32v-7.155h-7.16v-7.155h-7.16v7.155h-7.16v-7.155h-7.17v7.155h-7.15v-7.155h-7.17v7.155h-14.31v7.155h-7.16v7.156h-7.166v14.31h-7.157v7.143h-7.164v-7.143h-7.163v-7.155h7.163v-7.155h7.164V21.466h21.483v-7.155h-14.326V7.155h-7.157v7.156h-7.164v14.31H966.59v-14.31h-14.327V7.155h-7.157v14.311h14.32v7.155h-7.163v7.156h-7.157V21.466h-14.32v7.155h-7.164v-7.155h-7.15v-7.155h-7.164v14.31h-14.32v-7.155h-7.157v42.932h186.159v-7.162h-7.16v-7.149h7.16v7.143h7.15v7.168h28.65v-14.31h-28.65v-7.156h7.16v-7.155h-7.16V28.62h.01Zm-186.162 7.156h7.164v7.155h14.32v-7.155h7.15v7.155h-7.15v7.155h-14.32v-7.155h-7.164v-7.155Zm50.124 21.46h-14.32v-7.15h7.157v-7.155h7.163v7.155h7.157v7.143h-7.157v.006Zm78.748-28.616v14.311h-7.15v7.155h-7.15v-7.155h7.15v-14.31h7.15Zm35.81 14.311h-14.32v7.155h-14.32v-14.31h7.15v7.155h7.17v-7.155h7.16V28.62h7.16v7.156h7.16v7.155h-7.16ZM1081.15 7.155h-7.16v7.156h7.16V7.155Z" fill="#873835"/><path d="M1038.18 7.155h-7.15v7.156h7.15V7.155ZM980.91 42.932v7.155h7.157v-7.155h-7.157ZM923.629 7.155h-7.157v7.156h7.157V7.155Z" fill="#873835"/><path d="M1102.63 50.087h7.16v-7.155h-7.16v7.155ZM1102.63 7.155h-7.16v14.311h7.16v7.155h7.16V7.155h-7.16ZM1095.47 35.777h-7.16v7.155h14.32v-7.155h-7.16ZM1081.15 50.087h7.16v-7.155h-7.16v7.155ZM1088.31 14.31V7.156h-7.16v14.311h7.16v-7.155Z" fill="#79B346"/><path d="M1081.15 21.466h-7.16v-7.155h-7.16V7.155h-28.65v7.156h7.17v7.155h7.16v-7.155h7.16v7.155h7.16v7.155h14.32v-7.155ZM1059.67 28.621h-7.16v7.156h-7.16v7.155h21.48v-7.155h-7.16V28.62ZM1016.71 7.155h-21.48v7.156h14.32v7.155h14.31v-7.155h7.17V7.155h-14.32Z" fill="#79B346"/><path d="M995.23 21.466h-7.163v14.31h-7.157v7.156h14.32v-7.155h7.16V28.62h7.16v-7.155h-14.32ZM980.91 21.466v-7.155h7.157V7.155h-35.798v7.156h14.327v14.31h14.314v-7.155Z" fill="#79B346"/><path d="M945.112 21.466v14.31h7.157v-7.155h7.164v-7.155h-14.321Z" fill="#79B346"/><path d="M945.112 7.155h-21.483v7.156h-7.157v7.155h7.157v7.155h7.163v-7.155h14.32V7.156Z" fill="#79B346"/><path d="M909.315 7.155h-21.484v14.311h7.157v7.155h14.327v-14.31h7.157V7.155h-7.157Z" fill="#79B346"/><path d="M1102.63 0H887.831v7.155h221.959V0h-7.16Z" fill="#9BE65A"/><path d="M1217.18 42.932h-7.15v7.155h7.15v-7.155ZM1210.03 50.087h-7.17v7.143h7.17v-7.143ZM1202.86 42.932h-7.15v7.155h7.15v-7.155ZM1167.07 42.932h-7.16v7.155h-7.16v7.15h21.48v-7.15h-7.16v-7.155ZM1145.58 35.777h-7.15v7.155h7.15v-7.155ZM1138.43 42.932h-14.32v7.155h14.32v-7.155ZM1124.11 35.777h-7.16v7.155h7.16v-7.155Z" fill="#C96965"/><path d="M1228 64.404h-118.21v28.602H1228V64.404Z" fill="#5E2725"/><path d="M1228 28.621h-3.65v7.156h-7.17v14.31h-7.15v7.143h-7.17v-7.143h-7.15v-7.155h7.15v-7.155h7.17V21.466H1228v-7.155h-10.82V7.155h-7.15v7.156h-7.17v14.31h-14.31v-14.31h-14.33V7.155h-7.15v14.311h14.32v7.155h-7.17v7.156h-7.15V21.466h-14.32v7.155h-7.17v-7.155h-7.15v-7.155h-7.16v14.31h-14.32v-7.155h-7.16v42.932H1228V28.621Zm-82.42 14.311h-7.15v7.155h-14.32v-7.155h-7.16v-7.155h7.16v7.155h14.32v-7.155h7.15v7.155Zm28.65 14.304h-21.48v-7.149h7.16v-7.155h7.16v7.155h7.16v7.15Z" fill="#873835"/><path d="M1210.03 42.932h-7.17v7.155h7.17v-7.155ZM1145.58 7.155h-7.15v7.156h7.15V7.155Z" fill="#873835"/><path d="M1228 7.155h-10.82v7.156H1228V7.155ZM1210.03 21.466v14.31h-7.17v7.156h14.32v-7.155h7.17V28.62h3.65v-7.155h-17.97ZM1174.23 14.31h14.32v14.311h14.31v-14.31h7.17V7.155h-35.8v7.156Z" fill="#79B346"/><path d="M1174.23 35.777V28.62h7.16v-7.155h-14.32v14.31h7.16ZM1145.58 14.31h-7.15v7.156h7.15v7.155h7.17v-7.155h14.32V7.156h-21.49v7.155Z" fill="#79B346"/><path d="M1116.95 28.621h14.32v-14.31h7.16V7.155h-28.64v14.311h7.16v7.155Z" fill="#79B346"/><path d="M1138.43 7.155H1228V0h-118.21v7.155h28.64Z" fill="#9BE65A"/></svg>