<svg width="74" height="74" fill="none" xmlns="http://www.w3.org/2000/svg"><g clip-path="url(#a)"><path d="M32.55 32.55v16.27h-8.14V24.41h8.14v8.14Z" fill="#8AC44F"/><path d="M40.68 16.27h8.14v8.14h8.14v8.14h8.13v8.13h-8.13v8.14h-8.14v8.14h-8.14v8.13h-8.13V8.14h8.13v8.13ZM24.41 40.68v8.14H8.14V24.41h16.27v16.27Z" fill="#ADED6D"/><path d="M40.68 8.14h-8.13V0h8.13v8.14ZM40.68 8.14h8.14v8.13h-8.14V8.14ZM32.55 24.41H8.14v-8.14h16.27V8.14h8.14v16.27ZM48.82 16.27h8.14v8.14h-8.14v-8.14ZM56.96 24.41h8.13v8.14h-8.13v-8.14ZM8.14 40.68v8.14H0V24.41h8.14v16.27ZM73.23 32.55v8.13h-8.14v-8.13h8.14ZM65.09 40.68v8.14h-8.13v-8.14h8.13ZM24.41 48.82h8.14v16.27h-8.14v-8.13H8.14v-8.14h16.27ZM56.96 48.82v8.14h-8.14v-8.14h8.14ZM48.82 56.96v8.13h-8.14v-8.13h8.14ZM40.68 73.23h-8.13v-8.14h8.13v8.14Z" fill="#202126"/></g><defs><clipPath id="a"><path fill="#fff" d="M0 0h73.23v73.23H0z"/></clipPath></defs></svg>