<svg width="101" height="56" fill="none" xmlns="http://www.w3.org/2000/svg"><g clip-path="url(#a)"><path d="M100.75 44.55H89.56v11.14h11.19V44.55Z" fill="#787A77"/><path d="M100.75 33.42H89.56v11.13h11.19V33.42Z" fill="#E7EBE4"/><path d="M89.56 44.55H78.38v11.14h11.18V44.55Z" fill="#B2B5B0"/><path d="M89.56 33.42H78.38v11.13h11.18V33.42ZM89.56 22.26H78.38v11.16h11.18V22.26Z" fill="#B2B5B0"/><path d="M89.56 11.14H78.38v11.13h11.18V11.14Z" fill="#E7EBE4"/><path d="M78.38 44.55h-11.2v11.14h11.2V44.55Z" fill="#787A77"/><path d="M78.38 33.42h-11.2v11.13h11.2V33.42ZM78.38 22.26h-11.2v11.16h11.2V22.26Z" fill="#B2B5B0"/><path d="M78.38 11.14h-11.2v11.13h11.2V11.14ZM67.18 44.55H55.99v11.14h11.19V44.55Z" fill="#787A77"/><path d="M67.18 33.42H55.99v11.13h11.19V33.42ZM67.18 22.26H55.99v11.16h11.19V22.26Z" fill="#787A77"/><path d="M67.18 11.14H55.99v11.13h11.19V11.14Z" fill="#B2B5B0"/><path d="M67.18 0H55.99v11.14h11.19V0Z" fill="#E7EBE4"/><path d="M55.99 44.55h-11.2v11.14h11.2V44.55Z" fill="#787A77"/><path d="M55.99 33.42h-11.2v11.13h11.2V33.42Z" fill="#787A77"/><path d="M55.99 22.26h-11.2v11.16h11.2V22.26Z" fill="#B2B5B0"/><path d="M55.99 11.14h-11.2v11.13h11.2V11.14Z" fill="#B2B5B0"/><path d="M55.99 0h-11.2v11.14h11.2V0Z" fill="#E7EBE4"/><path d="M44.79 44.55h-11.2v11.14h11.2V44.55Z" fill="#787A77"/><path d="M44.79 33.42h-11.2v11.13h11.2V33.42Z" fill="#B2B5B0"/><path d="M44.79 22.26h-11.2v11.16h11.2V22.26Z" fill="#787A77"/><path d="M44.79 11.14h-11.2v11.13h11.2V11.14ZM33.59 44.55H22.4v11.14h11.19V44.55Z" fill="#B2B5B0"/><path d="M33.59 33.42H22.4v11.13h11.19V33.42ZM33.59 22.26H22.4v11.16h11.19V22.26Z" fill="#B2B5B0"/><path d="M33.59 11.14H22.4v11.13h11.19V11.14Z" fill="#E7EBE4"/><path d="M22.4 44.55H11.2v11.14h11.2V44.55Z" fill="#B2B5B0"/><path d="M22.4 33.42H11.2v11.13h11.2V33.42ZM22.4 22.26H11.2v11.16h11.2V22.26ZM11.2 44.55H0v11.14h11.2V44.55Z" fill="#E7EBE4"/></g><defs><clipPath id="a"><path fill="#fff" d="M0 0h100.75v55.69H0z"/></clipPath></defs></svg>